HIERARCHY
ROOT Hips
{
	OFFSET -13.091600 -28.302996 44.698402
	CHANNELS 6 Xposition Yposition Zposition Zrotation Xrotation Yrotation
	JOINT Chest
	{
		OFFSET -0.673000 0.623899 5.369202
		CHANNELS 6 Xposition Yposition Zposition Zrotation Xrotation Yrotation
		JOINT Chest2
		{
			OFFSET 0.000000 0.000000 4.415001
			CHANNELS 6 Xposition Yposition Zposition Zrotation Xrotation Yrotation
			JOINT Neck
			{
				OFFSET 0.000000 0.000002 10.273300
				CHANNELS 6 Xposition Yposition Zposition Zrotation Xrotation Yrotation
				JOINT Head
				{
					OFFSET 0.000000 0.000000 2.173897
					CHANNELS 6 Xposition Yposition Zposition Zrotation Xrotation Yrotation
					End Site
					{
						OFFSET 0.000000 0.000000 9.961800
					}
				}
			}
			JOINT LeftCollar
			{
				OFFSET 2.359900 -0.565201 5.928101
				CHANNELS 6 Xposition Yposition Zposition Zrotation Xrotation Yrotation
				JOINT LeftShoulder
				{
					OFFSET 5.443700 0.000000 0.000000
					CHANNELS 6 Xposition Yposition Zposition Zrotation Xrotation Yrotation
					JOINT LeftElbow
					{
						OFFSET 0.000000 0.000000 -10.615799
						CHANNELS 6 Xposition Yposition Zposition Zrotation Xrotation Yrotation
						JOINT LeftWrist
						{
							OFFSET 0.000000 -0.000002 -13.110302
							CHANNELS 6 Xposition Yposition Zposition Zrotation Xrotation Yrotation
							End Site
							{
								OFFSET 0.000000 0.000000 -2.173901
							}
						}
					}
				}
			}
			JOINT RightCollar
			{
				OFFSET -2.636600 -1.718800 6.889698
				CHANNELS 6 Xposition Yposition Zposition Zrotation Xrotation Yrotation
				JOINT RightShoulder
				{
					OFFSET -4.139101 0.000000 0.000000
					CHANNELS 6 Xposition Yposition Zposition Zrotation Xrotation Yrotation
					JOINT RightElbow
					{
						OFFSET 0.000000 0.000000 -10.471802
						CHANNELS 6 Xposition Yposition Zposition Zrotation Xrotation Yrotation
						JOINT RightWrist
						{
							OFFSET 0.000000 0.000000 -12.281898
							CHANNELS 6 Xposition Yposition Zposition Zrotation Xrotation Yrotation
							End Site
							{
								OFFSET 0.000000 -0.000002 -2.173901
							}
						}
					}
				}
			}
		}
	}
	JOINT LeftHip
	{
		OFFSET 2.273400 0.176701 -2.518002
		CHANNELS 6 Xposition Yposition Zposition Zrotation Xrotation Yrotation
		JOINT LeftKnee
		{
			OFFSET 0.000000 -0.000002 -20.456402
			CHANNELS 6 Xposition Yposition Zposition Zrotation Xrotation Yrotation
			JOINT LeftAnkle
			{
				OFFSET 0.000000 -0.000002 -16.635300
				CHANNELS 6 Xposition Yposition Zposition Zrotation Xrotation Yrotation
				End Site
				{
					OFFSET 0.000000 -8.812399 0.000001
				}
			}
		}
	}
	JOINT RightHip
	{
		OFFSET -1.914800 0.018101 -2.699299
		CHANNELS 6 Xposition Yposition Zposition Zrotation Xrotation Yrotation
		JOINT RightKnee
		{
			OFFSET 0.000000 -0.000002 -20.148901
			CHANNELS 6 Xposition Yposition Zposition Zrotation Xrotation Yrotation
			JOINT RightAnkle
			{
				OFFSET 0.000000 -0.000002 -16.838301
				CHANNELS 6 Xposition Yposition Zposition Zrotation Xrotation Yrotation
				End Site
				{
					OFFSET 0.000000 -8.328398 0.000001
				}
			}
		}
	}
}
MOTION
Frames: 10
Frame Time: 0.041667
-30.810205 30.670111 43.652802 1211.750199 1.663288 4.776760 -0.673003 0.623899 5.369211 11.435310 1.101667 -3.694194 -0.000001 -0.000006 4.415007 -1.299352 -2.003321 -0.198675 -0.000007 0.000002 10.273303 -38.171024 -17.692700 1.208966 -0.000003 -0.000005 2.173904 -1.377051 -5.739151 -5.415019 2.359898 -0.565199 5.928103 3.329403 2.738047 -3.363950 5.443692 -0.000003 0.000008 -29.574531 14.003138 -16.858836 0.000005 -0.000004 -10.615790 564.356893 -173.954987 180.453297 0.000003 -0.000006 -13.110304 -188.322987 -178.024182 174.046785 -2.636606 -1.718804 6.889707 197.159762 -192.815694 172.427019 -4.139110 0.000001 0.000008 138.251403 -434.563191 199.977543 0.000000 0.000012 -10.471804 -52.630125 -32.989233 -407.940698 0.000003 -0.000003 -12.281898 373.884528 -15.449032 12.037045 2.273395 0.176699 -2.518001 -140.727975 -147.251693 -168.219623 0.000000 -0.000002 -20.456402 171.532305 148.788581 -179.312328 -0.000009 0.000001 -16.635298 21.772734 9.412938 16.236587 -1.914801 0.018101 -2.699291 198.048438 171.433800 178.528864 0.000002 0.000003 -20.148895 -12.435427 11.286715 -11.745693 -0.000005 -0.000004 -16.838299 -7.077273 20.659898 -2.202026
-30.581799 31.052511 43.633907 1211.933685 1.560344 4.766124 -0.672993 0.623897 5.369207 11.474040 1.116110 -3.644406 -0.000007 -0.000002 4.414998 -1.373126 -1.987654 -0.197187 -0.000001 -0.000005 10.273313 -37.951977 -17.539101 1.159902 -0.000002 0.000000 2.173898 -1.302947 -5.639343 -5.393244 2.359900 -0.565206 5.928110 3.270473 2.839838 -3.316455 5.443700 -0.000006 0.000003 -29.701866 13.833726 -16.837229 0.000005 0.000005 -10.615797 564.432080 -173.978169 180.453653 -0.000002 -0.000003 -13.110293 -188.265149 -178.073222 174.062849 -2.636603 -1.718806 6.889706 197.311188 -192.862399 172.207948 -4.139097 -0.000004 0.000004 138.571383 -435.112283 200.296295 -0.000002 -0.000001 -10.471803 -53.100298 -33.093964 -408.513969 0.000003 -0.000007 -12.281906 373.836006 -15.460700 11.965230 2.273403 0.176705 -2.517998 -141.976642 -148.136490 -169.296716 -0.000001 -0.000007 -20.456400 172.619234 149.318467 -179.336425 0.000001 0.000003 -16.635296 23.172139 9.455016 19.001950 -1.914795 0.018104 -2.699297 199.000840 170.698981 178.318822 -0.000000 -0.000001 -20.148903 -13.180008 11.208094 -11.783544 -0.000003 -0.000003 -16.838299 -7.425121 20.859196 -2.266447
-30.348503 31.447008 43.634609 1212.316176 1.397221 4.677200 -0.673002 0.623896 5.369210 11.326001 1.218648 -3.523224 0.000001 -0.000004 4.415003 -1.450201 -1.980793 -0.195495 0.000004 -0.000005 10.273306 -37.721168 -17.355519 1.076307 -0.000002 -0.000002 2.173895 -1.302069 -5.539525 -5.374696 2.359903 -0.565208 5.928110 3.262805 2.904277 -3.286530 5.443700 -0.000002 0.000004 -29.991651 13.710878 -16.782432 -0.000000 -0.000003 -10.615796 564.586114 -174.002525 180.471015 0.000012 -0.000005 -13.110291 -188.080010 -178.155553 174.025365 -2.636597 -1.718807 6.889708 197.415280 -192.848192 171.931516 -4.139104 -0.000001 0.000014 138.811041 -435.702466 200.464290 0.000000 0.000005 -10.471795 -53.605131 -33.162300 -409.114808 0.000003 0.000002 -12.281897 373.832509 -15.488712 11.837446 2.273400 0.176702 -2.518002 -143.297082 -149.116745 -170.312761 -0.000003 0.000007 -20.456396 173.527349 149.631181 -179.290840 -0.000000 0.000005 -16.635302 24.415196 9.713333 21.554356 -1.914799 0.018098 -2.699296 199.744538 169.909821 178.144734 -0.000004 -0.000001 -20.148895 -13.888434 11.219968 -11.807187 -0.000001 -0.000008 -16.838303 -7.764510 21.133877 -2.291938
-30.111103 31.851511 43.660702 1212.914500 1.167916 4.516574 -0.673003 0.623900 5.369215 10.975464 1.430137 -3.333038 0.000001 -0.000001 4.415011 -1.511552 -1.980551 -0.195116 0.000000 -0.000006 10.273308 -37.549501 -17.177173 0.985092 -0.000001 -0.000000 2.173906 -1.386448 -5.479907 -5.342238 2.359901 -0.565204 5.928096 3.264306 2.921379 -3.263734 5.443698 -0.000003 0.000003 -30.326303 13.605741 -16.720899 -0.000003 -0.000004 -10.615800 564.757197 -174.057167 180.500562 0.000010 -0.000006 -13.110301 -187.538594 -178.143628 174.056197 -2.636601 -1.718808 6.889699 197.528251 -192.811637 171.635468 -4.139106 0.000003 0.000003 138.970239 -436.369803 200.589446 0.000004 0.000005 -10.471798 -54.125721 -33.308305 -409.748540 0.000003 -0.000003 -12.281897 373.724018 -15.494380 11.719139 2.273398 0.176706 -2.517997 -144.694170 -150.200696 -171.251707 -0.000001 0.000001 -20.456396 174.257086 149.884758 -179.176612 0.000000 -0.000002 -16.635298 25.312013 10.161220 23.908048 -1.914801 0.018106 -2.699293 200.281528 169.071211 178.006860 -0.000004 -0.000006 -20.148897 -14.463371 11.315259 -11.807252 -0.000001 -0.000003 -16.838299 -8.143486 21.488444 -2.371566
-29.874008 32.265816 43.712601 1213.760460 0.864347 4.288528 -0.672997 0.623898 5.369211 10.319034 1.766623 -3.087759 -0.000002 -0.000003 4.415004 -1.506360 -1.993110 -0.197364 -0.000001 -0.000005 10.273302 -37.445976 -17.012405 0.874639 -0.000002 -0.000002 2.173894 -1.497032 -5.451425 -5.294544 2.359898 -0.565210 5.928102 3.272641 2.873752 -3.277205 5.443695 -0.000009 0.000004 -30.570830 13.499194 -16.609114 0.000006 -0.000001 -10.615796 564.836973 -174.099910 180.524304 -0.000001 -0.000003 -13.110301 -187.330219 -178.301036 174.094883 -2.636601 -1.718807 6.889698 197.645853 -192.803140 171.402614 -4.139102 -0.000004 0.000001 140.174647 -437.030364 201.756685 -0.000001 0.000001 -10.471799 -54.493718 -33.441774 -410.421723 0.000000 0.000003 -12.281896 373.643531 -15.497054 11.635048 2.273405 0.176701 -2.518006 -146.117390 -151.373603 -172.026347 -0.000002 -0.000001 -20.456396 174.805523 150.119020 -179.117148 -0.000002 0.000004 -16.635298 25.723310 10.783570 25.923688 -1.914795 0.018101 -2.699298 200.507498 168.204282 177.911729 -0.000001 -0.000005 -20.148895 -14.938939 11.575974 -11.788701 0.000001 -0.000003 -16.838301 -8.470649 21.902841 -2.449338
-29.640202 32.688904 43.784603 1214.922467 0.134782 4.065116 -0.672993 0.623899 5.369208 9.387248 2.561974 -2.931940 -0.000003 -0.000000 4.415013 -1.486634 -2.007970 -0.200960 -0.000002 -0.000001 10.273301 -37.329473 -16.900412 0.783830 -0.000001 -0.000004 2.173897 -1.621127 -5.401821 -5.258987 2.359903 -0.565202 5.928098 3.245761 2.788564 -3.295496 5.443697 0.000004 0.000008 -30.690632 13.381492 -16.469673 0.000009 0.000004 -10.615794 564.798014 -174.107273 180.533620 -0.000002 -0.000002 -13.110293 -187.463025 -178.618654 174.153008 -2.636601 -1.718800 6.889703 197.735602 -192.758757 171.291350 -4.139101 0.000002 0.000006 141.218341 -437.840589 202.799450 -0.000002 0.000003 -10.471800 -54.908529 -33.640546 -411.045210 -0.000001 -0.000009 -12.281899 373.500343 -15.510117 11.541836 2.273406 0.176703 -2.518003 -147.700723 -152.861888 -172.865995 -0.000001 -0.000000 -20.456398 176.216531 150.709886 -178.884212 -0.000006 0.000003 -16.635298 26.064400 11.916192 24.317029 -1.914797 0.018105 -2.699294 200.454250 166.989164 177.681525 -0.000002 -0.000002 -20.148893 -15.233434 11.951141 -11.779933 -0.000003 0.000000 -16.838299 -8.878319 22.396086 -2.482248
-29.412399 33.124214 43.869400 1215.783945 0.127925 3.856169 -0.673000 0.623900 5.369197 8.752460 2.636487 -2.678276 -0.000003 0.000001 4.415012 -1.476695 -2.018412 -0.204377 0.000002 -0.000003 10.273300 -37.263344 -16.842659 0.740686 -0.000004 0.000003 2.173891 -1.740251 -5.355022 -5.211068 2.359904 -0.565207 5.928102 3.182494 2.702859 -3.363914 5.443691 -0.000003 0.000003 -30.823295 13.199595 -16.279957 0.000003 0.000004 -10.615799 564.623161 -174.133870 180.527897 -0.000002 -0.000006 -13.110298 -187.186088 -178.824844 174.295540 -2.636596 -1.718804 6.889697 197.829681 -192.694704 171.268674 -4.139101 0.000008 0.000011 144.720288 -438.446946 206.327365 0.000000 0.000005 -10.471797 -54.769958 -33.863989 -411.579386 0.000001 -0.000005 -12.281897 373.290192 -15.494928 11.460208 2.273399 0.176705 -2.518009 -148.798267 -153.679762 -173.137249 -0.000000 0.000004 -20.456396 177.206745 151.220689 -178.615990 -0.000010 -0.000004 -16.635300 26.203701 13.007711 22.628319 -1.914801 0.018105 -2.699301 200.655467 166.508756 177.722274 -0.000004 0.000000 -20.148899 -15.518712 12.379374 -11.786815 0.000002 -0.000008 -16.838301 -9.283708 22.969784 -2.533211
-29.189705 33.574615 43.958603 1216.857432 -0.479630 3.694210 -0.673001 0.623900 5.369208 8.000904 3.286196 -2.575590 0.000005 0.000002 4.415008 -1.467048 -2.032364 -0.207491 -0.000002 0.000004 10.273304 -37.205393 -16.778279 0.760573 -0.000005 0.000001 2.173911 -1.873232 -5.331544 -5.146917 2.359898 -0.565203 5.928103 3.057470 2.692072 -3.458297 5.443695 -0.000005 0.000004 -30.869709 12.918595 -16.105200 0.000004 0.000002 -10.615790 564.467925 -174.178867 180.532528 0.000003 -0.000004 -13.110291 -187.042299 -179.000093 174.492919 -2.636602 -1.718801 6.889698 197.920946 -192.654337 171.202831 -4.139096 -0.000000 0.000008 146.895512 -439.115047 208.583349 0.000004 0.000006 -10.471799 -54.866353 -34.146742 -412.054985 0.000005 -0.000004 -12.281898 373.046108 -15.444760 11.453595 2.273398 0.176705 -2.517997 -150.275486 -154.996486 -173.712912 -0.000001 0.000006 -20.456400 177.983515 151.734046 -178.392452 -0.000009 0.000000 -16.635300 26.109747 14.130896 20.882936 -1.914801 0.018106 -2.699294 200.754204 165.490935 177.521985 -0.000008 0.000000 -20.148899 -15.657613 12.850823 -11.833042 0.000002 -0.000000 -16.838301 -9.755049 23.551518 -2.642819
-28.971802 34.036713 44.042908 1217.819232 -0.987271 3.578090 -0.672993 0.623901 5.369193 7.428481 3.769237 -2.546120 0.000008 -0.000005 4.414998 -1.479793 -2.052761 -0.210368 -0.000013 -0.000002 10.273299 -37.113581 -16.690995 0.902811 -0.000007 -0.000001 2.173891 -2.024035 -5.320370 -5.095751 2.359894 -0.565206 5.928106 2.856560 2.791098 -3.490207 5.443699 -0.000004 0.000004 -30.887372 12.598633 -15.981734 -0.000001 -0.000001 -10.615796 564.285586 -174.209166 180.518908 0.000003 0.000003 -13.110291 -186.899275 -179.125973 174.741183 -2.636611 -1.718805 6.889706 198.004875 -192.624148 171.067320 -4.139099 -0.000001 0.000000 149.530545 -439.572943 211.301000 0.000006 0.000007 -10.471796 -54.696080 -34.369976 -412.411248 -0.000001 -0.000003 -12.281898 372.712905 -15.516347 11.355664 2.273408 0.176703 -2.518003 -151.660485 -156.201112 -174.182145 0.000001 0.000002 -20.456396 178.738988 152.235887 -178.269727 -0.000006 -0.000001 -16.635300 25.954763 15.326041 19.004219 -1.914791 0.018102 -2.699301 200.962170 164.618214 177.324524 -0.000003 -0.000003 -20.148899 -15.809678 13.386492 -11.891994 0.000001 -0.000005 -16.838303 -10.181007 24.193341 -2.777896
-28.756998 34.511414 44.116005 1218.282483 -1.625977 3.499315 -0.673007 0.623899 5.369210 7.459860 4.284722 -2.586119 0.000002 -0.000002 4.414998 -1.540935 -2.082033 -0.213149 -0.000005 0.000005 10.273298 -37.077511 -16.549557 1.122692 -0.000003 -0.000000 2.173897 -2.126483 -5.320450 -5.048146 2.359895 -0.565200 5.928097 2.536648 3.026407 -3.450571 5.443693 -0.000004 0.000007 -30.815891 12.270541 -15.981534 0.000002 0.000001 -10.615785 564.067512 -174.207076 180.520985 -0.000003 -0.000001 -13.110294 -186.697388 -179.173074 174.955241 -2.636604 -1.718802 6.889696 198.021978 -192.565846 170.753773 -4.139106 -0.000000 0.000009 150.265760 -440.038325 212.071773 -0.000012 0.000002 -10.471793 -54.568601 -34.667243 -412.599871 -0.000001 0.000001 -12.281891 372.426965 -15.460729 11.289627 2.273393 0.176702 -2.517991 -152.505475 -157.482661 -174.675859 0.000002 0.000003 -20.456394 179.423346 152.686119 -178.162698 -0.000006 0.000000 -16.635300 25.736359 16.468897 17.139079 -1.914806 0.018100 -2.699287 201.832227 163.653026 177.005090 -0.000006 -0.000001 -20.148899 -15.942293 13.877706 -12.018004 -0.000004 -0.000006 -16.838299 -10.727720 24.849254 -2.951334
